<svg id="svg" version="1.1" xmlns="http://www.w3.org/2000/svg" xmlns:xlink="http://www.w3.org/1999/xlink" width="400" height="155.8724962980282" viewBox="0, 0, 400,155.8724962980282"><g id="svgg"><path id="path0" d="M111.080 44.204 C 110.637 44.595,110.129 45.292,109.798 45.964 L 109.250 47.076 109.250 91.333 L 109.250 135.590 109.795 136.698 C 111.114 139.377,114.904 140.662,117.709 139.380 C 118.922 138.826,118.839 142.311,118.793 93.612 L 118.750 49.083 118.357 48.109 C 117.034 44.828,112.895 42.607,111.080 44.204 M105.337 45.951 C 104.533 46.864,104.258 47.348,103.815 48.637 C 103.364 49.949,103.317 137.488,103.766 139.004 C 104.332 140.906,105.868 142.639,107.803 143.556 C 109.284 144.258,112.860 144.351,114.167 143.722 L 114.917 143.361 114.083 143.345 C 110.418 143.275,106.806 140.230,105.918 136.460 C 105.554 134.919,105.540 47.561,105.903 46.162 C 106.204 45.000,106.182 44.992,105.337 45.951 M41.823 68.303 C 40.085 70.091,40.250 66.414,40.250 103.333 L 40.250 135.583 40.684 136.508 C 41.302 137.827,42.034 138.581,43.303 139.205 C 45.381 140.227,49.183 139.855,49.667 138.582 C 49.946 137.849,49.887 73.798,49.607 72.750 C 48.923 70.189,46.978 68.257,44.411 67.589 C 42.965 67.212,42.855 67.243,41.823 68.303 M36.343 69.758 C 35.956 70.179,35.401 71.024,35.111 71.637 L 34.583 72.750 34.538 105.250 C 34.508 127.000,34.550 138.016,34.664 138.554 C 35.139 140.789,36.739 142.680,39.000 143.677 C 40.309 144.255,44.004 144.282,45.167 143.722 L 45.917 143.361 45.059 143.347 C 41.429 143.288,37.805 140.222,36.918 136.460 C 36.555 134.922,36.541 71.391,36.903 69.995 C 37.202 68.843,37.192 68.838,36.343 69.758 M76.441 81.235 C 76.002 81.661,75.443 82.439,75.197 82.963 L 74.750 83.917 74.750 109.750 L 74.750 135.583 75.184 136.508 C 75.802 137.827,76.534 138.581,77.803 139.205 C 79.934 140.254,83.837 139.823,84.189 138.500 C 84.456 137.499,84.345 86.783,84.075 85.743 C 83.086 81.947,78.497 79.237,76.441 81.235 M70.596 83.125 C 70.176 83.652,69.663 84.496,69.458 85.000 L 69.083 85.917 69.083 112.342 L 69.083 138.767 69.705 140.025 C 70.497 141.628,71.539 142.670,73.141 143.462 L 74.399 144.083 76.658 144.083 C 78.632 144.083,79.011 144.038,79.667 143.722 L 80.417 143.361 79.583 143.345 C 75.918 143.275,72.306 140.230,71.418 136.460 C 71.065 134.965,71.046 84.618,71.397 83.125 C 71.521 82.598,71.564 82.167,71.492 82.167 C 71.419 82.167,71.016 82.598,70.596 83.125 M8.040 99.167 C 7.370 99.574,6.682 100.438,6.182 101.500 L 5.750 102.417 5.750 119.000 L 5.750 135.583 6.184 136.508 C 6.802 137.827,7.534 138.581,8.803 139.205 C 10.881 140.227,14.683 139.855,15.167 138.582 C 15.443 137.857,15.385 105.293,15.107 104.250 C 14.256 101.067,9.977 97.989,8.040 99.167 M1.837 101.284 C 1.015 102.216,0.639 102.904,0.268 104.155 C -0.172 105.641,-0.136 137.701,0.308 139.127 C 0.894 141.009,2.221 142.506,4.158 143.467 L 5.399 144.083 7.658 144.083 C 9.632 144.083,10.011 144.038,10.667 143.722 L 11.417 143.361 10.559 143.347 C 6.872 143.287,3.046 139.956,2.336 136.186 C 2.048 134.657,2.110 102.625,2.403 101.495 C 2.704 100.334,2.682 100.325,1.837 101.284 M362.567 112.400 L 362.000 112.967 362.000 121.212 C 362.000 129.438,362.001 129.461,362.413 131.085 C 363.899 136.944,368.684 141.127,375.000 142.090 C 377.877 142.529,378.179 142.421,376.083 141.703 C 370.335 139.735,366.229 135.424,364.540 129.583 L 364.106 128.083 364.042 119.958 L 363.977 111.833 363.555 111.833 C 363.298 111.833,362.913 112.054,362.567 112.400 M368.500 119.390 C 368.500 127.765,368.551 128.250,369.673 130.649 C 372.966 137.687,381.920 140.468,388.750 136.574 C 390.501 135.576,391.135 134.697,392.046 132.001 L 392.581 130.417 392.632 121.700 L 392.683 112.983 392.108 112.408 L 391.533 111.833 380.017 111.833 L 368.500 111.833 368.500 119.390 " stroke="none" fill="#6dbd93" fill-rule="evenodd"></path><path id="path1" d="M324.083 0.316 C 320.585 1.936,321.740 7.357,325.583 7.357 C 329.492 7.357,330.579 1.769,326.964 0.259 C 326.136 -0.087,324.901 -0.063,324.083 0.316 M113.622 13.004 C 110.380 13.823,108.289 17.627,109.411 20.667 C 109.564 21.079,109.702 21.497,109.719 21.595 C 109.736 21.693,104.029 27.892,97.037 35.371 L 84.325 48.969 83.287 48.443 C 80.501 47.029,76.493 48.320,75.301 51.014 C 75.032 51.620,76.307 52.044,64.958 47.568 C 61.633 46.256,56.399 44.286,53.692 43.328 C 52.794 43.010,52.097 42.665,52.046 42.513 C 49.739 35.601,40.335 36.608,40.224 43.779 C 40.191 45.904,40.527 45.481,34.500 50.987 C 33.354 52.033,32.042 53.233,31.583 53.653 C 30.863 54.314,29.030 55.962,27.002 57.773 C 26.680 58.061,24.279 60.194,21.667 62.514 C 19.054 64.833,16.363 67.238,15.685 67.858 C 14.480 68.961,14.444 68.980,13.995 68.748 C 13.303 68.390,11.799 68.204,10.744 68.348 C 4.073 69.253,3.993 78.957,10.647 80.163 C 14.981 80.949,18.996 76.195,17.291 72.294 L 17.019 71.672 17.968 70.777 C 18.828 69.964,20.239 68.695,23.833 65.495 C 24.521 64.883,25.875 63.677,26.842 62.816 C 27.809 61.955,29.153 60.762,29.828 60.167 C 30.503 59.571,31.137 59.008,31.237 58.917 C 31.337 58.825,32.131 58.113,33.001 57.334 C 33.871 56.555,34.996 55.537,35.500 55.071 C 36.004 54.605,36.979 53.710,37.667 53.083 C 38.354 52.455,39.680 51.205,40.612 50.304 C 41.545 49.403,42.339 48.667,42.377 48.667 C 42.416 48.667,42.927 48.909,43.515 49.206 C 46.208 50.565,49.597 49.542,51.348 46.843 L 51.612 46.435 53.098 46.983 C 58.712 49.052,63.597 50.934,71.604 54.113 L 74.790 55.378 75.165 56.281 C 77.666 62.316,86.613 60.158,86.561 53.532 L 86.549 51.981 87.967 50.449 C 88.747 49.606,89.919 48.354,90.572 47.667 C 91.225 46.979,92.839 45.254,94.159 43.833 C 95.479 42.412,97.091 40.688,97.742 40.000 C 98.393 39.313,100.009 37.587,101.332 36.167 C 102.656 34.746,104.160 33.133,104.675 32.583 C 105.191 32.033,106.172 30.983,106.856 30.250 C 108.677 28.297,110.800 26.032,111.673 25.109 L 112.438 24.302 113.333 24.568 C 119.298 26.339,123.659 19.220,119.399 14.665 C 118.075 13.250,115.538 12.520,113.622 13.004 M171.083 14.595 C 155.103 17.042,145.504 29.171,145.504 46.917 C 145.504 66.860,157.512 79.667,176.213 79.667 C 187.488 79.667,196.011 74.655,200.732 65.250 L 201.317 64.083 201.325 70.214 C 201.335 78.001,201.390 78.167,203.947 78.167 C 206.927 78.167,206.697 79.775,206.625 59.455 C 206.555 39.744,206.553 39.715,204.631 34.083 C 199.988 20.477,185.947 12.320,171.083 14.595 M364.417 14.595 C 351.413 16.586,342.213 25.355,339.688 38.167 C 337.728 48.113,339.222 58.751,343.604 66.045 C 354.577 84.312,384.269 84.334,395.198 66.083 C 401.913 54.871,401.581 37.124,394.464 26.800 C 388.151 17.643,376.205 12.791,364.417 14.595 M301.500 15.248 C 295.520 16.139,291.180 19.139,288.352 24.333 L 287.671 25.583 287.669 21.367 C 287.667 17.973,287.619 17.057,287.420 16.673 C 286.522 14.937,283.167 15.052,282.551 16.839 C 282.263 17.675,282.263 76.163,282.551 76.984 C 283.112 78.586,286.164 78.887,287.234 77.446 C 287.583 76.977,287.584 76.933,287.678 58.030 C 287.762 41.236,287.805 38.884,288.058 37.333 C 290.062 25.036,294.786 20.417,305.357 20.417 C 309.062 20.417,309.320 20.397,309.666 20.084 C 310.912 18.957,310.981 16.374,309.785 15.591 C 308.941 15.038,304.218 14.842,301.500 15.248 M211.250 15.658 C 209.888 16.215,209.946 17.200,211.540 20.583 C 212.231 22.050,213.058 23.813,213.377 24.500 C 213.697 25.188,214.915 27.775,216.084 30.250 C 217.253 32.725,218.455 35.275,218.754 35.917 C 219.053 36.558,219.689 37.908,220.166 38.917 C 220.644 39.925,221.544 41.837,222.167 43.167 C 222.789 44.496,223.690 46.408,224.168 47.417 C 224.646 48.425,225.244 49.700,225.498 50.250 C 225.752 50.800,226.934 53.313,228.123 55.833 C 229.313 58.354,230.513 60.904,230.789 61.500 C 231.065 62.096,232.248 64.608,233.417 67.083 C 234.586 69.558,235.824 72.183,236.167 72.917 C 236.511 73.650,237.073 74.850,237.417 75.583 C 238.525 77.947,239.197 78.493,241.000 78.493 C 243.239 78.493,243.475 78.186,246.832 70.917 C 247.316 69.869,248.046 68.319,249.501 65.250 C 249.979 64.242,250.953 62.179,251.666 60.667 C 252.378 59.154,253.281 57.242,253.671 56.417 C 273.574 14.318,272.136 17.483,271.766 16.596 C 271.430 15.792,270.769 15.499,269.300 15.503 C 267.017 15.508,266.881 15.670,264.125 21.667 C 263.429 23.179,262.038 26.179,261.034 28.333 C 260.029 30.488,257.969 34.912,256.457 38.167 C 254.944 41.421,253.388 44.758,252.999 45.583 C 252.611 46.408,251.861 48.021,251.333 49.167 C 250.805 50.313,249.965 52.112,249.467 53.167 C 248.968 54.221,246.881 58.701,244.827 63.122 C 242.774 67.543,241.034 71.100,240.960 71.026 C 240.886 70.952,239.733 68.535,238.398 65.654 C 237.063 62.774,235.707 59.854,235.384 59.167 C 235.062 58.479,234.177 56.567,233.418 54.917 C 232.660 53.267,231.722 51.242,231.335 50.417 C 230.948 49.592,229.745 47.004,228.663 44.667 C 227.582 42.329,225.373 37.567,223.756 34.083 C 222.139 30.600,219.685 25.301,218.302 22.308 C 215.705 16.685,215.448 16.237,214.550 15.775 C 213.978 15.480,211.866 15.405,211.250 15.658 M323.871 15.834 C 323.571 16.017,323.252 16.359,323.163 16.594 C 322.853 17.407,322.950 76.752,323.261 77.355 C 324.105 78.986,327.480 78.606,327.945 76.828 C 328.230 75.741,328.226 17.865,327.941 16.920 C 327.536 15.576,325.281 14.974,323.871 15.834 M181.218 20.019 C 194.853 22.455,202.765 34.614,201.186 50.704 C 199.649 66.373,188.681 75.750,173.527 74.351 C 159.220 73.031,150.833 62.883,150.833 46.890 C 150.833 28.197,163.634 16.877,181.218 20.019 M374.167 19.947 C 386.689 21.996,394.258 31.611,394.618 45.928 C 395.042 62.770,385.968 73.665,370.882 74.428 C 356.418 75.160,346.282 66.449,344.411 51.678 C 341.797 31.051,355.130 16.832,374.167 19.947 M113.225 39.323 C 109.679 39.888,106.827 42.526,105.920 46.077 C 105.542 47.559,105.539 134.855,105.918 136.460 C 108.152 145.935,122.490 145.629,124.411 136.065 C 124.823 134.013,124.719 46.976,124.303 45.810 C 122.573 40.960,118.373 38.501,113.225 39.323 M117.696 43.287 C 118.791 43.779,119.912 44.872,120.455 45.976 L 120.917 46.917 120.917 91.333 L 120.917 135.750 120.521 136.570 C 118.442 140.882,111.894 140.960,109.795 136.698 L 109.250 135.590 109.250 91.333 L 109.250 47.076 109.798 45.964 C 111.140 43.238,114.814 41.993,117.696 43.287 M43.545 63.239 C 40.334 64.018,37.742 66.608,36.938 69.844 C 36.545 71.430,36.525 134.794,36.918 136.460 C 39.074 145.605,52.781 145.749,55.361 136.654 C 55.631 135.701,55.777 72.984,55.514 70.983 C 54.773 65.357,49.333 61.837,43.545 63.239 M48.848 67.141 C 49.881 67.641,50.906 68.692,51.459 69.818 L 51.917 70.750 51.960 102.827 C 52.007 137.885,52.061 135.784,51.074 137.349 C 48.743 141.041,42.576 140.541,40.684 136.508 L 40.250 135.583 40.250 103.333 C 40.250 66.606,40.101 70.127,41.725 68.400 C 43.354 66.667,46.663 66.082,48.848 67.141 M77.406 76.506 C 74.589 77.399,72.232 79.887,71.503 82.738 C 71.052 84.503,70.972 134.570,71.418 136.460 C 72.422 140.719,75.936 143.326,80.678 143.331 C 85.133 143.336,88.032 141.356,89.646 137.207 L 90.083 136.083 90.083 109.833 C 90.083 80.517,90.187 83.146,88.938 80.750 C 87.012 77.055,81.764 75.124,77.406 76.506 M83.119 80.165 C 84.387 80.726,85.261 81.562,85.867 82.793 L 86.417 83.910 86.417 109.750 L 86.417 135.590 85.868 136.705 C 83.745 141.018,77.243 140.898,75.184 136.508 L 74.750 135.583 74.750 109.750 L 74.750 83.917 75.191 82.975 C 76.507 80.169,80.182 78.866,83.119 80.165 M10.083 94.605 C 6.262 95.198,3.345 97.789,2.420 101.410 C 2.111 102.620,2.034 134.582,2.336 136.186 C 4.108 145.588,18.496 145.832,20.852 136.500 C 21.194 135.144,21.194 102.857,20.852 101.500 C 19.679 96.849,14.985 93.844,10.083 94.605 M164.250 95.834 C 152.114 96.923,144.238 107.103,145.177 120.486 C 146.071 133.211,154.453 141.044,167.167 141.035 C 173.902 141.031,178.636 139.227,182.757 135.095 C 186.342 131.500,186.828 129.684,184.475 128.672 C 182.978 128.028,181.862 128.422,180.797 129.969 C 176.529 136.177,166.358 138.276,158.750 134.518 C 153.666 132.007,150.167 126.146,150.167 120.145 L 150.167 119.167 168.092 119.167 C 189.726 119.167,187.650 119.560,187.440 115.504 C 186.770 102.581,177.423 94.653,164.250 95.834 M259.750 95.834 C 253.444 96.400,247.791 99.671,244.455 104.686 C 239.115 112.711,239.359 125.407,244.999 132.979 C 253.345 144.186,272.947 143.800,280.629 132.278 C 281.932 130.325,281.772 129.445,279.975 128.672 C 278.375 127.983,277.596 128.326,275.903 130.466 C 274.568 132.153,272.707 133.690,270.917 134.583 C 265.320 137.376,257.037 136.791,252.077 133.251 C 248.383 130.616,245.667 125.058,245.667 120.136 L 245.667 119.167 263.592 119.167 C 285.191 119.167,283.139 119.546,282.949 115.589 C 282.323 102.619,272.964 94.649,259.750 95.834 M333.333 95.828 C 318.674 97.106,310.247 111.865,315.404 127.227 C 320.708 143.029,343.395 146.000,351.432 131.945 L 351.829 131.250 351.831 133.562 C 351.836 138.726,350.656 143.019,348.420 145.968 C 342.709 153.505,326.334 152.550,320.917 144.363 C 320.042 143.042,318.902 142.705,317.338 143.304 C 315.078 144.170,315.546 146.154,318.778 149.407 C 322.961 153.617,328.570 155.738,335.500 155.731 C 347.424 155.718,354.216 150.402,356.362 139.405 C 356.965 136.314,356.967 115.221,356.365 112.531 C 353.863 101.361,344.849 94.824,333.333 95.828 M370.903 95.828 C 370.712 95.905,370.356 96.206,370.111 96.497 L 369.667 97.026 369.667 101.513 L 369.667 106.000 367.792 106.003 C 366.159 106.005,365.833 106.054,365.267 106.378 C 363.926 107.147,363.981 106.625,364.045 118.000 L 364.102 128.083 364.550 129.632 C 366.462 136.247,372.407 141.580,378.817 142.430 L 379.667 142.543 379.667 148.568 C 379.667 155.213,379.641 155.046,380.728 155.562 C 381.906 156.120,383.421 155.827,384.152 154.898 C 384.490 154.468,384.500 154.286,384.501 148.519 L 384.501 142.583 386.164 142.221 C 392.982 140.737,398.363 135.264,399.679 128.477 C 399.973 126.963,400.000 126.015,400.000 117.352 L 400.000 107.883 399.621 107.320 C 398.876 106.215,398.338 106.000,396.309 106.000 L 394.500 106.000 394.500 101.745 C 394.500 96.214,394.274 95.669,391.983 95.667 C 389.755 95.666,389.522 96.243,389.509 101.792 L 389.500 106.000 382.000 106.000 L 374.500 106.000 374.500 101.608 C 374.500 96.774,374.431 96.438,373.328 95.880 C 372.865 95.645,371.430 95.615,370.903 95.828 M212.264 96.006 C 207.237 96.799,203.635 99.192,201.080 103.433 L 200.500 104.397 200.491 101.407 C 200.480 98.144,200.353 97.481,199.637 96.951 C 199.019 96.492,197.676 96.388,196.783 96.729 C 195.389 97.261,195.500 95.376,195.500 118.501 L 195.500 139.033 196.054 139.587 C 197.336 140.869,199.890 140.439,200.327 138.867 C 200.436 138.473,200.498 134.260,200.499 127.202 C 200.500 111.072,201.109 107.882,204.913 104.078 C 209.607 99.384,220.158 99.468,224.836 104.237 C 228.367 107.837,228.821 110.519,228.828 127.808 C 228.834 140.293,228.760 139.587,230.120 140.106 C 231.566 140.659,233.214 140.130,233.616 138.984 C 233.874 138.246,233.912 117.148,233.660 114.051 C 232.826 103.804,228.453 98.091,220.083 96.312 C 218.341 95.941,213.799 95.764,212.264 96.006 M305.360 96.352 C 301.826 96.762,298.505 98.806,296.668 101.702 L 296.003 102.750 296.001 100.500 C 296.000 98.694,295.942 98.135,295.708 97.667 C 294.991 96.232,292.411 96.085,291.361 97.419 L 291.000 97.878 291.000 118.426 L 291.000 138.974 291.422 139.476 C 292.178 140.374,294.070 140.596,295.118 139.909 C 296.011 139.324,296.000 139.492,296.000 126.318 C 296.000 113.581,296.062 112.239,296.774 109.667 C 298.450 103.612,301.617 101.167,307.783 101.167 C 310.997 101.167,311.489 100.828,311.552 98.573 C 311.611 96.450,309.876 95.828,305.360 96.352 M14.396 98.747 C 15.441 99.242,16.524 100.360,17.062 101.500 C 17.416 102.249,17.417 102.266,17.417 119.000 L 17.417 135.750 17.021 136.570 C 14.899 140.972,8.260 140.934,6.184 136.508 L 5.750 135.583 5.750 119.000 L 5.750 102.417 6.184 101.492 C 7.571 98.534,11.306 97.286,14.396 98.747 M169.381 100.579 C 175.498 101.393,179.861 104.865,181.639 110.333 C 181.907 111.157,182.500 113.985,182.500 114.438 C 182.500 114.472,175.270 114.500,166.433 114.500 L 150.366 114.500 150.669 113.125 C 152.618 104.266,159.983 99.328,169.381 100.579 M264.298 100.510 C 270.822 101.223,275.177 104.545,277.152 110.317 C 277.466 111.236,278.047 114.336,277.928 114.459 C 277.906 114.483,270.687 114.483,261.887 114.459 L 245.887 114.417 246.105 113.333 C 247.850 104.658,255.152 99.511,264.298 100.510 M338.250 100.578 C 346.819 101.802,351.833 108.320,351.833 118.237 C 351.833 129.687,345.513 136.400,335.000 136.115 C 324.890 135.842,319.090 129.290,319.113 118.167 C 319.138 106.130,326.937 98.961,338.250 100.578 M395.460 118.875 C 395.397 128.289,395.414 128.116,394.284 130.582 C 389.582 140.838,374.460 140.880,369.673 130.649 C 368.536 128.219,368.500 127.852,368.500 118.640 L 368.500 110.333 382.008 110.333 L 395.517 110.333 395.460 118.875 " stroke="none" fill="#040404" fill-rule="evenodd"></path></g></svg>